<svg width="154" height="210" viewBox="0 0 154 210" fill="none" xmlns="http://www.w3.org/2000/svg">
<path d="M120.1 10.2L114.977 18.7882L120.1 10.2ZM145.3 107.4L136.356 102.928L136.339 102.962L136.322 102.996L145.3 107.4ZM120.4 133.2L115.39 124.546L120.4 133.2ZM40.9 143.1V133.1H30.9V143.1H40.9ZM40.9 210V220H50.9V210H40.9ZM0.1 210H-9.9V220H0.1V210ZM0.1 -1.52588e-05V-10H-9.9V-1.52588e-05H0.1ZM101.2 100.5L106.935 108.692L101.2 100.5ZM101.2 44.7L95.5079 52.9219L95.6278 53.0049L95.7501 53.0844L101.2 44.7ZM40.9 36.6V26.6H30.9V36.6H40.9ZM40.9 108.9H30.9V118.9H40.9V108.9ZM77.8 9.99998C93.2692 9.99998 105.487 13.1276 114.977 18.7882L125.223 1.6118C111.913 -6.32758 95.9308 -10 77.8 -10V9.99998ZM114.977 18.7882C124.859 24.6828 131.847 32.1891 136.323 41.3067L154.277 32.4933C147.953 19.6109 138.141 9.31718 125.223 1.6118L114.977 18.7882ZM136.323 41.3067C141.031 50.8958 143.4 61.1832 143.4 72.3H163.4C163.4 58.2168 160.369 44.9042 154.277 32.4933L136.323 41.3067ZM143.4 72.3C143.4 83.4171 141.031 93.5773 136.356 102.928L154.244 111.872C160.369 99.6227 163.4 86.3829 163.4 72.3H143.4ZM136.322 102.996C132.094 111.615 125.281 118.819 115.39 124.546L125.41 141.854C138.319 134.381 148.106 124.385 154.278 111.804L136.322 102.996ZM115.39 124.546C105.893 130.044 93.5405 133.1 77.8 133.1V153.1C96.0595 153.1 112.107 149.556 125.41 141.854L115.39 124.546ZM77.8 133.1H40.9V153.1H77.8V133.1ZM30.9 143.1V210H50.9V143.1H30.9ZM40.9 200H0.1V220H40.9V200ZM10.1 210V-1.52588e-05H-9.9V210H10.1ZM0.1 9.99998H77.8V-10H0.1V9.99998ZM71.5 118.9C84.9165 118.9 96.9294 115.696 106.935 108.692L95.4654 92.3077C89.4706 96.504 81.6835 98.9 71.5 98.9V118.9ZM106.935 108.692C118.493 100.602 123.2 87.5089 123.2 72.3H103.2C103.2 83.491 99.9074 89.1983 95.4654 92.3077L106.935 108.692ZM123.2 72.3C123.2 57.1406 118.505 44.0215 106.65 36.3156L95.7501 53.0844C99.8948 55.7784 103.2 61.0594 103.2 72.3H123.2ZM106.892 36.4781C97.0249 29.6469 84.9942 26.6 71.5 26.6V46.6C82.0058 46.6 89.7751 48.9531 95.5079 52.9219L106.892 36.4781ZM71.5 26.6H40.9V46.6H71.5V26.6ZM30.9 36.6V108.9H50.9V36.6H30.9ZM40.9 118.9H71.5V98.9H40.9V118.9Z" fill="#B49976" fill-opacity="0.3"/>
</svg>
