<svg width="293" height="211" viewBox="0 0 293 211" fill="none" xmlns="http://www.w3.org/2000/svg">
<path d="M0.3 -1.52588e-05V-10H-12.5922L-9.38579 2.48706L0.3 -1.52588e-05ZM42 -1.52588e-05L51.7388 -2.27054L49.9368 -10H42V-1.52588e-05ZM78.3 155.7L68.5612 157.971L70.3632 165.7H78.3V155.7ZM80.1 155.7V165.7H87.4816L89.6562 158.646L80.1 155.7ZM128.1 -1.52588e-05V-10H120.718L118.544 -2.94604L128.1 -1.52588e-05ZM164.4 -1.52588e-05L173.956 -2.94604L171.782 -10H164.4V-1.52588e-05ZM212.4 155.7L202.844 158.646L205.018 165.7H212.4V155.7ZM214.2 155.7V165.7H222.122L223.935 157.988L214.2 155.7ZM250.8 -1.52588e-05V-10H242.878L241.065 -2.28831L250.8 -1.52588e-05ZM292.5 -1.52588e-05L302.186 2.48706L305.392 -10H292.5V-1.52588e-05ZM238.5 210.3V220.3H246.257L248.186 212.787L238.5 210.3ZM188.4 210.3L178.828 213.195L180.977 220.3H188.4V210.3ZM147.3 74.4L156.872 71.5052L154.723 64.4H147.3V74.4ZM145.5 74.4V64.4H138.077L135.928 71.5052L145.5 74.4ZM104.4 210.3V220.3H111.823L113.972 213.195L104.4 210.3ZM54.3 210.3L44.6142 212.787L46.5434 220.3H54.3V210.3ZM0.3 9.99998H42V-10H0.3V9.99998ZM32.2612 2.27051L68.5612 157.971L88.0388 153.429L51.7388 -2.27054L32.2612 2.27051ZM78.3 165.7H80.1V145.7H78.3V165.7ZM89.6562 158.646L137.656 2.94601L118.544 -2.94604L70.5438 152.754L89.6562 158.646ZM128.1 9.99998H164.4V-10H128.1V9.99998ZM154.844 2.94601L202.844 158.646L221.956 152.754L173.956 -2.94604L154.844 2.94601ZM212.4 165.7H214.2V145.7H212.4V165.7ZM223.935 157.988L260.535 2.28828L241.065 -2.28831L204.465 153.412L223.935 157.988ZM250.8 9.99998H292.5V-10H250.8V9.99998ZM282.814 -2.48709L228.814 207.813L248.186 212.787L302.186 2.48706L282.814 -2.48709ZM238.5 200.3H188.4V220.3H238.5V200.3ZM197.972 207.405L156.872 71.5052L137.728 77.2948L178.828 213.195L197.972 207.405ZM147.3 64.4H145.5V84.4H147.3V64.4ZM135.928 71.5052L94.8282 207.405L113.972 213.195L155.072 77.2948L135.928 71.5052ZM104.4 200.3H54.3V220.3H104.4V200.3ZM63.9858 207.813L9.98579 -2.48709L-9.38579 2.48706L44.6142 212.787L63.9858 207.813Z" fill="#B49976" fill-opacity="0.3"/>
</svg>
